<?xml version="1.0" standalone="no"?>
<svg viewBox="0 0 200 200" xmlns="http://www.w3.org/2000/svg">
  <path fill="#EC6E4C" d="M46.1,-79.1C60.6,-71.6,73.6,-60.8,80.3,-47C86.9,-33.3,87.3,-16.7,85.7,-0.9C84.1,14.8,80.5,29.6,73.8,43.4C67.2,57.3,57.6,70.2,44.8,77.9C32,85.6,16,88.2,0,88.2C-16,88.2,-32.1,85.8,-46.4,78.9C-60.7,72.1,-73.3,60.9,-80.4,47C-87.5,33.1,-89,16.5,-88.2,0.5C-87.3,-15.6,-84.2,-31.2,-77.4,-45.6C-70.6,-60,-60.2,-73.2,-46.7,-81.2C-33.2,-89.3,-16.6,-92.2,-0.4,-91.5C15.9,-90.9,31.7,-86.6,46.1,-79.1Z" transform="translate(100 100)" />
</svg>
