<?xml version="1.0" standalone="no"?>
<svg viewBox="0 0 200 200" xmlns="http://www.w3.org/2000/svg">
  <path fill="#EC6E4C" d="M45.3,-79.3C59,-70.5,70.6,-59,78.3,-45.3C86,-31.6,89.9,-15.8,89,-0.5C88,14.7,82.3,29.4,74.3,42.8C66.4,56.1,56.3,68.1,43.6,75.5C30.8,82.8,15.4,85.5,0.1,85.4C-15.2,85.2,-30.5,82.2,-43.2,74.8C-55.8,67.4,-65.9,55.7,-74.1,42.5C-82.2,29.2,-88.4,14.6,-88.5,0C-88.5,-14.7,-82.3,-29.3,-74,-42.2C-65.7,-55.1,-55.2,-66.2,-42.5,-75.5C-29.8,-84.8,-14.9,-92.2,0.5,-93C15.8,-93.8,31.6,-88,45.3,-79.3Z" transform="translate(100 100)" />
</svg>
