<?xml version="1.0" standalone="no"?>
<svg viewBox="0 0 200 200" xmlns="http://www.w3.org/2000/svg">
  <path fill="#EC6E4C" d="M45.7,-80.2C58.8,-71.5,68.6,-58.4,75.9,-44.3C83.1,-30.2,87.7,-15.1,87.8,0.1C87.9,15.2,83.5,30.4,75.4,43.1C67.4,55.8,55.7,66,42.5,72.3C29.3,78.6,14.7,80.9,-0.6,81.9C-15.8,83,-31.7,82.7,-43.8,75.8C-56,68.9,-64.4,55.5,-71.7,41.7C-79.1,28,-85.5,14,-87.6,-1.3C-89.8,-16.5,-87.8,-33,-79.8,-45.6C-71.7,-58.2,-57.6,-66.8,-43.3,-74.7C-29,-82.6,-14.5,-89.9,0.9,-91.4C16.3,-93,32.6,-88.8,45.7,-80.2Z" transform="translate(100 100)" />
</svg>
