<?xml version="1.0" standalone="no"?>
<svg viewBox="0 0 200 200" xmlns="http://www.w3.org/2000/svg">
  <path fill="#EC6E4C" d="M45.9,-79.6C58.5,-72.1,67.3,-58,74.4,-43.6C81.6,-29.2,87.2,-14.6,88.3,0.6C89.4,15.9,86,31.8,78.8,46.1C71.6,60.4,60.6,73.2,46.9,80.4C33.1,87.6,16.6,89.3,0,89.3C-16.6,89.4,-33.2,87.9,-46.1,80.2C-59,72.5,-68.2,58.5,-76.5,44.1C-84.8,29.7,-92.3,14.9,-93.8,-0.9C-95.3,-16.6,-90.8,-33.2,-82.3,-47.2C-73.7,-61.1,-61,-72.4,-46.6,-78.9C-32.2,-85.4,-16.1,-87.2,0.2,-87.6C16.6,-88,33.2,-87.1,45.9,-79.6Z" transform="translate(100 100)" />
</svg>
