<?xml version="1.0" standalone="no"?>
<svg viewBox="0 0 200 200" xmlns="http://www.w3.org/2000/svg">
  <path fill="#8B72B6" d="M39.3,-50.4C53.4,-43.8,69.1,-35.7,73.9,-23.4C78.7,-11.2,72.5,5.2,66.8,21.4C61.1,37.6,55.9,53.7,44.9,65.3C33.8,76.9,16.9,83.9,-0.8,85C-18.5,86.2,-37.1,81.4,-50.4,70.6C-63.8,59.7,-71.9,42.9,-77.6,25.3C-83.2,7.6,-86.4,-10.7,-82.9,-28.5C-79.3,-46.4,-69,-63.6,-54.1,-69.9C-39.2,-76.3,-19.6,-71.7,-3.5,-66.8C12.6,-62,25.1,-56.9,39.3,-50.4Z" transform="translate(100 100)" />
</svg>
