<?xml version="1.0" standalone="no"?>
<svg viewBox="0 0 200 200" xmlns="http://www.w3.org/2000/svg">
  <path fill="#EC6E4C" d="M53.4,-72.7C68.6,-62.5,79.8,-46.1,84.8,-28.2C89.7,-10.3,88.4,9,82.6,26.9C76.9,44.7,66.6,61.1,52.1,69.6C37.5,78.1,18.8,78.6,0.1,78.5C-18.6,78.3,-37.2,77.5,-51.9,69.1C-66.6,60.7,-77.6,44.7,-82.7,27.3C-87.8,9.8,-87.2,-9.2,-79.9,-24.2C-72.6,-39.2,-58.6,-50.3,-44.2,-60.7C-29.7,-71.1,-14.9,-80.8,2.1,-83.8C19.1,-86.7,38.3,-82.9,53.4,-72.7Z" transform="translate(100 100)" />
</svg>
