<?xml version="1.0" standalone="no"?>
<svg viewBox="0 0 200 200" xmlns="http://www.w3.org/2000/svg">
  <path fill="#EC6E4C" d="M41.1,-61.3C52.1,-48.6,59.1,-35,66.1,-19.9C73.2,-4.8,80.3,11.8,78.4,27.9C76.5,43.9,65.5,59.4,50.9,66.6C36.3,73.7,18.2,72.4,2.6,68.8C-12.9,65.2,-25.9,59.3,-39.3,51.8C-52.8,44.4,-66.7,35.3,-70.4,23.1C-74,10.9,-67.3,-4.4,-62.7,-20.9C-58.1,-37.5,-55.6,-55.3,-45.5,-68.4C-35.4,-81.4,-17.7,-89.9,-1.3,-88C15,-86.2,30.1,-74.1,41.1,-61.3Z" transform="translate(100 100)" />
</svg>
