<?xml version="1.0" standalone="no"?>
<svg viewBox="0 0 200 200" xmlns="http://www.w3.org/2000/svg">
  <path fill="#EC6E4C" d="M44.7,-59.8C60.3,-50.3,76.9,-40.3,81.5,-26.4C86.1,-12.5,78.8,5.4,72.5,23.1C66.1,40.8,60.7,58.4,48.7,68.4C36.8,78.4,18.4,80.9,3,76.7C-12.4,72.6,-24.8,61.9,-39.9,52.9C-55.1,43.9,-73,36.7,-82.6,23.1C-92.2,9.4,-93.5,-10.7,-86.1,-26.3C-78.7,-41.8,-62.6,-52.9,-46.8,-62.4C-31,-71.9,-15.5,-79.9,-0.5,-79.2C14.6,-78.6,29.2,-69.4,44.7,-59.8Z" transform="translate(100 100)" />
</svg>
