<?xml version="1.0" standalone="no"?>
<svg viewBox="0 0 200 200" xmlns="http://www.w3.org/2000/svg">
  <path fill="#EC6E4C" d="M49.7,-67.8C61,-60.2,64.4,-41.1,68.6,-23.4C72.9,-5.7,77.9,10.6,76.2,27.5C74.5,44.3,65.9,61.6,52.1,69.7C38.2,77.8,19.1,76.6,2,73.8C-15.1,71.1,-30.2,66.7,-40.2,57.3C-50.2,48,-55.1,33.8,-59.7,19.4C-64.3,5.1,-68.6,-9.3,-66.4,-23.3C-64.2,-37.3,-55.5,-50.8,-43.4,-58.1C-31.2,-65.4,-15.6,-66.4,1.8,-68.9C19.2,-71.4,38.4,-75.4,49.7,-67.8Z" transform="translate(100 100)" />
</svg>
