<?xml version="1.0" standalone="no"?>
<svg viewBox="0 0 200 200" xmlns="http://www.w3.org/2000/svg">
  <path fill="#EC6E4C" d="M44.9,-78.1C58.9,-69.6,71.6,-59.1,80.2,-45.8C88.7,-32.4,93.2,-16.2,92.1,-0.6C91,15,84.5,30,76,43.4C67.5,56.9,57,68.8,44,76.1C31.1,83.5,15.5,86.3,-0.1,86.4C-15.7,86.6,-31.4,84.1,-44.7,77C-58.1,69.8,-69,58,-77.5,44.3C-86,30.7,-92.1,15.4,-91.6,0.3C-91.1,-14.8,-84,-29.6,-75.3,-42.9C-66.6,-56.2,-56.3,-68,-43.5,-77.3C-30.7,-86.6,-15.4,-93.3,0,-93.3C15.4,-93.3,30.8,-86.7,44.9,-78.1Z" transform="translate(100 100)" />
</svg>
